<?xml version="1.0" encoding="utf-8"?>
<!-- Svg Vector Icons : http://www.onlinewebfonts.com/icon -->
<!DOCTYPE svg PUBLIC "-//W3C//DTD SVG 1.1//EN" "http://www.w3.org/Graphics/SVG/1.1/DTD/svg11.dtd">
<svg version="1.1" xmlns="http://www.w3.org/2000/svg" xmlns:xlink="http://www.w3.org/1999/xlink" x="0px" y="0px" viewBox="0 0 1000 1000" enable-background="new 0 0 1000 1000" xml:space="preserve">
<metadata></metadata>
<g><g><g id="Layer_2_9_"><g><path fill="#16BBE5" d="M201.6,179.5c9.5,5.3,73.1,36.1,103.9,50.9c0.1,11.9,0.4,32.6,0.8,32.9c3.4,29.6,9.2,62.4,10.9,71.7c-2.8,1.6-17.2,11-17.2,40.2c0,0.2,0,0.3,0,0.5c0,0.8,0,1.5,0,2.3c6.2,81.3,38.5,46.2,45.2,81.8c11.1,59.2,63.5,102,96.1,116.8c18.9,8.5,38.3,12.9,58.7,13.3c20.4-0.4,39.8-4.8,58.6-13.3c32.6-14.8,85-57.6,96.1-116.8c6.7-35.6,39-0.6,45.2-81.8c0-0.8,0-1.6,0-2.3c0-0.2,0-0.3,0-0.5c0-29.2-14.4-38.6-17.2-40.2c1.7-9.3,7.5-42.1,10.9-71.7c0.4-0.4,0.7-21,0.8-32.9c16.9-8.1,43.7-21.1,66-32V277c-6.2,3.7-10.6,10.1-10.6,17.8c0,6.8,3.5,12.6,8.5,16.4c0,0-9,50.4-11.9,65.2c-2.9,14.8,51.1,11.8,48.7,0c-2.4-11.8-11.9-65.2-11.9-65.2c5-3.8,8.5-9.6,8.5-16.4c0-7.7-4.3-14.2-10.5-17.8v-88.8c8.3-4.1,14.5-7.3,17-8.7c6.7-3.8,10.3-8.6,9.5-13.6c0.9-5.2-2.9-10.8-13-15.8C722.6,114.8,538.3,24.6,520.1,15.9c-8-3.8-14.5-5.5-20.1-5.9c-5.6,0.4-12.1,2.1-20.1,5.9c-18.2,8.7-202.5,98.9-274.8,134.3c-10.1,5-13.9,10.6-13,15.8C191.4,170.9,195,175.8,201.6,179.5z"/><path fill="#16BBE5" d="M745.4,687.9c-34-12.3-93.2-47.6-103.4-53.1c-2.6-1.5-5.7-2.4-8.9-2.4c-7.1,0-13.2,4.2-16.1,10.2c-28,46.9-80,183.5-116.3,186c-0.2,0-0.4-0.1-0.7-0.1c-0.2,0-0.5,0.1-0.7,0.1c-36.3-2.5-88.3-139.1-116.3-186c-2.9-6-9-10.2-16.1-10.2c-3.3,0-6.3,0.9-8.9,2.4c-10.1,5.5-69.3,40.8-103.4,53.1C140.5,729,89.1,771,89.1,799.6c0,0.8,0,1.8,0,2.8c0,34.9,0,184.7,0,184.7c0,1.8,0,2.8,0,2.8h410.2h0.7h0.7h410.2c0,0,0-1,0-2.8c0,0,0-149.9,0-184.7c0-1,0-2,0-2.8C910.9,771,859.5,729,745.4,687.9z"/></g></g></g><g></g><g></g><g></g><g></g><g></g><g></g><g></g><g></g><g></g><g></g><g></g><g></g><g></g><g></g><g></g></g>
</svg>