<?xml version="1.0" encoding="utf-8"?>
<!DOCTYPE svg PUBLIC "-//W3C//DTD SVG 1.1//EN" "http://www.w3.org/Graphics/SVG/1.1/DTD/svg11.dtd">
<svg version="1.1" xmlns="http://www.w3.org/2000/svg" xmlns:xlink="http://www.w3.org/1999/xlink" x="0px" y="0px" viewBox="0 0 1000 1000" enable-background="new 0 0 1000 1000" xml:space="preserve">
<metadata> Svg Vector Icons : http://www.onlinewebfonts.com/icon </metadata>
<g><path fill="#EA5D5D" d="M150,45h560c38.6,0,70,31.4,70,70v245h35V115c0-58-47-105-105-105H150C92,10,45,57,45,115v700c0,58,47,105,105,105v-35c-38.6,0-70-31.4-70-70V115C80,76.4,111.4,45,150,45z"/>
    <path fill="#EA5D5D" d="M185,150h490v35H185V150z"/>
    <path fill="#EA5D5D" d="M185,255h490v35H185V255z"/>
    <path fill="#EA5D5D" d="M185,360h175v35H185V360z"/>
    <path fill="#EA5D5D" d="M891.9,465h-1H714.4v-21.4c0-46.1-49.8-83.6-110.4-83.6h-66.8c-60,0-107.2,36.7-107.2,83.6V465H254.5c-39,0-69.5,27.5-69.5,62.7v79.9v41.7V687c0,6.2,3.4,11.8,8.8,14.7c1.4,0.8,11.8,7.4,26.2,14.3v238.5c0,18.1,10.9,35.5,30,35.5h635.2c19.6,0,34.9-20.1,34.9-37.5V714c14.4-6.9,24.8-11.5,26.2-12.3c5.4-2.9,8.8-8.6,8.8-14.7v-37.7v-41.7v-79.9C955,491.4,929.1,465,891.9,465z M885,761.8c0,0-32.9,18.5-105,33.7l0,89.6h-70v-78.1c-39.4,4.8-85.9,8.1-140,8.1c-54.1,0-100.6-3.1-140-7.8l0,77.8h-70v-89c-72.1-14.8-105-32.7-105-32.7v-34c25.3,10.9,60.5,22.1,105,31.2V745h70v26.8c39.4,5.1,88.1,8.2,140,8.2c51.9,0,98.7-3.1,140-8.2V745h70v15.5c43.7-9.1,79.7-20.3,105-31.2V761.8z"/></g>
</svg>