<?xml version="1.0" encoding="utf-8"?>
<!DOCTYPE svg PUBLIC "-//W3C//DTD SVG 1.1//EN" "http://www.w3.org/Graphics/SVG/1.1/DTD/svg11.dtd">
<svg version="1.1" xmlns="http://www.w3.org/2000/svg" xmlns:xlink="http://www.w3.org/1999/xlink" x="0px" y="0px" viewBox="0 0 1000 1000" enable-background="new 0 0 1000 1000" xml:space="preserve">
<metadata> Svg Vector Icons : http://www.onlinewebfonts.com/icon </metadata>
<g><g><path fill="#007EC3" d="M990,433.2v133.6c0,18.6-6.5,34.3-19.5,47.3c-13,13-28.8,19.5-47.3,19.5H633.6v289.5c0,18.6-6.5,34.3-19.5,47.3c-13,13-28.8,19.5-47.3,19.5H433.2c-18.6,0-34.3-6.5-47.3-19.5c-13-13-19.5-28.8-19.5-47.3V633.6H76.8c-18.6,0-34.3-6.5-47.3-19.5S10,585.4,10,566.8V433.2c0-18.6,6.5-34.3,19.5-47.3s28.8-19.5,47.3-19.5h289.5V76.8c0-18.6,6.5-34.3,19.5-47.3c13-13,28.8-19.5,47.3-19.5h133.6c18.6,0,34.3,6.5,47.3,19.5c13,13,19.5,28.8,19.5,47.3v289.5h289.5c18.6,0,34.3,6.5,47.3,19.5C983.5,398.8,990,414.6,990,433.2L990,433.2z"/></g></g>
</svg>