<?xml version="1.0" encoding="utf-8"?>
<!DOCTYPE svg PUBLIC "-//W3C//DTD SVG 1.1//EN" "http://www.w3.org/Graphics/SVG/1.1/DTD/svg11.dtd">
<svg version="1.1" xmlns="http://www.w3.org/2000/svg" xmlns:xlink="http://www.w3.org/1999/xlink" x="0px" y="0px" viewBox="0 0 1000 1000" enable-background="new 0 0 1000 1000" xml:space="preserve">
<metadata> Svg Vector Icons : http://www.onlinewebfonts.com/icon </metadata>
<g><g><g><path fill="#16BBE5" d="M212.2,53.6H68.6C36.3,53.6,10,79.9,10,112.2v143.6c0,32.3,26.3,58.6,58.6,58.6h143.6c32.3,0,58.6-26.3,58.6-58.6V112.2C270.8,79.9,244.5,53.6,212.2,53.6z"/>
    <path fill="#16BBE5" d="M931.4,53.6H381.1c-32.3,0-58.6,26.3-58.6,58.6v143.6c0,32.3,26.3,58.6,58.6,58.6h550.3c32.3,0,58.6-26.3,58.6-58.6V112.2C990,79.9,963.7,53.6,931.4,53.6z"/>
    <path fill="#16BBE5" d="M212.2,369.6H68.6c-32.3,0-58.6,26.3-58.6,58.6v143.6c0,32.3,26.3,58.6,58.6,58.6h143.6c32.3,0,58.6-26.3,58.6-58.6V428.2C270.8,395.9,244.5,369.6,212.2,369.6z"/>
    <path fill="#16BBE5" d="M931.4,369.6H381.1c-32.3,0-58.6,26.3-58.6,58.6v143.6c0,32.3,26.3,58.6,58.6,58.6h550.3c32.3,0,58.6-26.3,58.6-58.6V428.2C990,395.9,963.7,369.6,931.4,369.6z"/>
    <path fill="#16BBE5" d="M212.2,685.6H68.6c-32.3,0-58.6,26.3-58.6,58.6v143.6c0,32.3,26.3,58.6,58.6,58.6h143.6c32.3,0,58.6-26.3,58.6-58.6V744.2C270.8,711.9,244.5,685.6,212.2,685.6z"/>
    <path fill="#16BBE5" d="M931.4,685.6H381.1c-32.3,0-58.6,26.3-58.6,58.6v143.6c0,32.3,26.3,58.6,58.6,58.6h550.3c32.3,0,58.6-26.3,58.6-58.6V744.2C990,711.9,963.7,685.6,931.4,685.6z"/>
</g></g><g></g><g></g><g></g><g></g><g></g><g></g><g></g><g></g><g></g><g></g><g></g><g>
</g><g></g><g></g><g></g></g>
</svg>