<?xml version="1.0" encoding="utf-8"?>
<!-- Svg Vector Icons : http://www.onlinewebfonts.com/icon -->
<!DOCTYPE svg PUBLIC "-//W3C//DTD SVG 1.1//EN" "http://www.w3.org/Graphics/SVG/1.1/DTD/svg11.dtd">
<svg version="1.1" xmlns="http://www.w3.org/2000/svg" xmlns:xlink="http://www.w3.org/1999/xlink" x="0px" y="0px" viewBox="0 0 1000 1000" enable-background="new 0 0 1000 1000" xml:space="preserve">
<metadata></metadata>
<g><g><g><path fill="#EA5D5D" d="M744.1,572.7H257c-90.1,0-163.6,72-163.6,162.1V990h320.9l48.2-262.6c1.8-9.8,10.4-17.1,20.4-17.1l-44.7-76.1c-2-3.3-2-7.5-0.1-10.9c2-3.3,5.5-5.5,9.4-5.5h122.8c3.9,0,7.6,2.1,9.5,5.6c1.9,3.4,1.9,7.6-0.2,10.9l-46.3,76.1h0.2c9.9,0,18.5,7,20.4,16.7L606.5,990h300.1V734.9C906.4,644.7,834.2,572.7,744.1,572.7z"/><path fill="#EA5D5D" d="M500.6,10c129.1,0,233.7,104.6,233.7,233.7c0,129.1-104.6,233.7-233.7,233.7c-129.1,0-233.7-104.6-233.7-233.7C266.9,114.6,371.5,10,500.6,10z"/></g></g><g></g><g></g><g></g><g></g><g></g><g></g><g></g><g></g><g></g><g></g><g></g><g></g><g></g><g></g><g></g></g>
</svg>