<?xml version="1.0" encoding="utf-8"?>
<!-- Svg Vector Icons : http://www.onlinewebfonts.com/icon -->
<!DOCTYPE svg PUBLIC "-//W3C//DTD SVG 1.1//EN" "http://www.w3.org/Graphics/SVG/1.1/DTD/svg11.dtd">
<svg version="1.1" xmlns="http://www.w3.org/2000/svg" xmlns:xlink="http://www.w3.org/1999/xlink" x="0px" y="0px" viewBox="0 0 1000 1000" enable-background="new 0 0 1000 1000" xml:space="preserve">
<metadata></metadata>
<g><g><path fill="#007EC3" d="M402,598.2h196v-294h147l-245-245l-245,245h147V598.2z M957.5,673.3c-10.3-11-78.9-84.4-98.5-103.6c-13-12.7-31.6-20.5-51.1-20.5h-86.1L872,695.9H698.3c-5,0-9.5,2.5-11.8,6.5l-40,91.8H353.4l-40-91.8c-2.3-4-6.8-6.5-11.8-6.5H128l150.1-146.7h-86c-19.5,0-38,7.8-51.1,20.5c-19.6,19.2-88.2,92.7-98.5,103.6c-24,25.5-37.1,45.9-30.9,71L39,894.9c6.3,25.2,33.9,45.9,61.3,45.9h799.3c27.5,0,55.1-20.7,61.3-45.9l27.5-150.6C994.7,719.1,981.5,698.8,957.5,673.3L957.5,673.3z"/></g></g>
</svg>